<svg id="email_marketing" data-name="email marketing" xmlns="http://www.w3.org/2000/svg" xmlns:xlink="http://www.w3.org/1999/xlink" width="64" height="64" viewBox="0 0 64 64"><defs><style>.cls-1{fill:none;}.cls-2{fill:#d0e7fc;}.cls-3{fill:#cde3fa;}.cls-4{fill:#5592bc;}.cls-5{fill:#fff;}.cls-6{clip-path:url(#clip-path);}.cls-7{fill:#fffdff;}.cls-8{fill:#87cfff;}.cls-9{fill:#ef9884;}</style><clipPath id="clip-path"><polygon class="cls-1" points="32 46 14 37.63 14 8 48 8 48 38.17 32 46"/></clipPath></defs><title>email marketing</title><path class="cls-2" d="M6.17,7.74A5.12,5.12,0,0,0,4,14.64L5.75,18l1.77,3.41a3.84,3.84,0,0,0,6.82-3.54l-2.95-5.68-.59-1.14A2.56,2.56,0,0,0,8.33,9.73a2.58,2.58,0,0,0-1.77.92,2.56,2.56,0,0,0-.3,2.81l3.54,6.82,1.14-.59L7.4,12.87a1.26,1.26,0,0,1-.08-1,1.26,1.26,0,0,1,.24-.43A1.29,1.29,0,0,1,8.43,11a1.27,1.27,0,0,1,.49.06,1.29,1.29,0,0,1,.43.23,1.27,1.27,0,0,1,.32.4l.59,1.14,2.95,5.68a2.56,2.56,0,1,1-4.54,2.36L6.89,17.46,5.12,14.05a3.84,3.84,0,0,1,6.82-3.54l3.54,6.82,1.14-.59L13.08,9.93A5.12,5.12,0,0,0,6.17,7.74Z"/><path class="cls-2" d="M52.18,57A5.12,5.12,0,0,1,50,50.05l1.77-3.41,1.77-3.41a3.84,3.84,0,0,1,6.82,3.54l-2.95,5.68-.59,1.14a2.57,2.57,0,0,1-1.5,1.26,2.56,2.56,0,0,1-3.21-1.67,2.53,2.53,0,0,1-.11-1,2.49,2.49,0,0,1,.28-1l3.54-6.82,1.13.59-3.54,6.82a1.36,1.36,0,0,0-.14.49,1.29,1.29,0,0,0,.06.49,1.25,1.25,0,0,0,.23.43,1.28,1.28,0,0,0,1.37.4,1.27,1.27,0,0,0,.43-.23,1.29,1.29,0,0,0,.32-.4l.59-1.14,2.95-5.68a2.56,2.56,0,1,0-4.54-2.36l-1.77,3.41-1.77,3.41a3.84,3.84,0,0,0,6.82,3.54l3.54-6.82,1.14.59-3.54,6.82A5.13,5.13,0,0,1,52.18,57Z"/><path class="cls-2" d="M7.77,45.8h2.66a.65.65,0,0,1,.64.55l.43,2.74,2.24-1.63a.64.64,0,0,1,.84.07l1.88,1.88a.65.65,0,0,1,.06.84l-1.63,2.24,2.74.44a.65.65,0,0,1,.55.64v2.66a.65.65,0,0,1-.55.64l-2.74.43,1.63,2.24a.65.65,0,0,1-.06.84l-1.88,1.88a.65.65,0,0,1-.84.07l-2.24-1.63-.43,2.74a.65.65,0,0,1-.64.55H7.77a.65.65,0,0,1-.64-.55l-.44-2.74L4.45,62.34a.65.65,0,0,1-.84-.07L1.72,60.39a.65.65,0,0,1-.06-.84l1.63-2.24L.55,56.87A.65.65,0,0,1,0,56.23V53.57a.65.65,0,0,1,.55-.64l3.17-.5L2.13,50.25a.65.65,0,0,1,.07-.84l1.88-1.88a.64.64,0,0,1,.84-.07l1.82,1.31.39-2.43A.65.65,0,0,1,7.77,45.8Zm2.11,1.3H8.32L7.86,50a.65.65,0,0,1-1,.42L4.61,48.84l-1.1,1.1,1.55,2.14a.65.65,0,0,1,0,.69,4.58,4.58,0,0,0-.23.47.65.65,0,0,1-.5.4l-3.07.49v1.55l3.07.49a.65.65,0,0,1,.51.41,1,1,0,0,1,0,.78L3,59.87,4.13,61l2.51-1.82a.65.65,0,0,1,.63-.07c.21.09.52.34.56.56l.49,3.07H9.88l.49-3.07a.64.64,0,0,1,.4-.5,1,1,0,0,1,.79,0L14.06,61l1.1-1.1-1.82-2.51a.65.65,0,0,1-.07-.63c.09-.21.34-.52.56-.56l3.07-.49V54.12l-3.07-.49a.65.65,0,0,1-.51-.41,1,1,0,0,1,0-.78l1.82-2.51-1.1-1.1-2.51,1.82a.64.64,0,0,1-.63.07c-.21-.09-.52-.34-.56-.56ZM9.1,51.65A3.25,3.25,0,1,1,5.85,54.9,3.25,3.25,0,0,1,9.1,51.65Zm0,5.2a2,2,0,1,0-2-1.95A2,2,0,0,0,9.1,56.85Z"/><polygon class="cls-3" points="52 54 12 54 12 38 32.06 48 52 38 52 54"/><path class="cls-4" d="M52,36H12a2,2,0,0,0-2,2V54a2,2,0,0,0,2,2H52a2,2,0,0,0,2-2V38A2,2,0,0,0,52,36Zm0,18H12V38H52Z"/><polygon class="cls-5" points="11.19 37.31 32 27.69 52.44 37.12 32 47.08 11.19 37.31"/><path class="cls-4" d="M32,48.08a1,1,0,0,1-.42-.1L10.76,38.22a1,1,0,0,1,0-1.81l20.81-9.62a1,1,0,0,1,.84,0l20.44,9.43a1,1,0,0,1,0,1.81L32.44,48A1,1,0,0,1,32,48.08ZM13.55,37.32,32,46l18.11-8.83L32,28.79Z"/><path class="cls-2" d="M34,15A15,15,0,1,0,49,0,15,15,0,0,0,34,15Zm2.05,1H37a1,1,0,0,0,0-2h-.95A13,13,0,0,1,48,2.05V3a1,1,0,0,0,2,0V2.05A13,13,0,0,1,61.95,14H61a1,1,0,0,0,0,2h.95A13,13,0,0,1,50,27.95V27a1,1,0,0,0-2,0v.95A13,13,0,0,1,36.05,16Z"/><path class="cls-2" d="M49,15a1,1,0,0,1-1-1V8a1,1,0,0,1,2,0v6A1,1,0,0,1,49,15Z"/><polygon class="cls-2" points="48 16 52 16 56 16 57.31 15 56 14 52 14 48 14 48 15 48 16"/><g class="cls-6"><path class="cls-4" d="M48,8H16L14,18l2,10V54H48V28L46,18ZM46,52H18V27.8L16,18l1.6-8H45.56L44,18l2,10.2Z"/><polygon class="cls-7" points="18 52 18 27.8 16.04 18 17.64 10 45.56 10 43.96 18 46 28.2 46 52 18 52"/></g><polygon class="cls-8" points="42 18 18 18 20 12 44 12 42 18"/><polygon class="cls-9" points="43.83 26 19.96 26 18 20 41.92 20 43.83 26"/><rect class="cls-2" x="20" y="32" width="12" height="2"/><rect class="cls-2" x="26" y="40" width="12" height="2"/><rect class="cls-2" x="24" y="36" width="18" height="2"/><path class="cls-4" d="M51.65,55a1,1,0,0,1-.5-.14L35.92,46a1,1,0,0,1,1-1.73l15.23,8.86a1,1,0,0,1-.5,1.86Z"/><path class="cls-4" d="M12.19,55a1,1,0,0,1-.5-1.87L27,44.27A1,1,0,0,1,28,46L12.69,54.87A1,1,0,0,1,12.19,55Z"/><path class="cls-4" d="M32,48.08a1,1,0,0,1-.44-.1L11.27,38a1,1,0,1,1,.88-1.79L32,46,51.55,36a1,1,0,0,1,.91,1.78L32.45,48A1,1,0,0,1,32,48.08Z"/></svg>