<svg id="network" xmlns="http://www.w3.org/2000/svg" width="64" height="64" viewBox="0 0 64 64"><defs><style>.cls-1{fill:#87cfff;}.cls-2{fill:#cde3fa;}.cls-3{fill:#5592bc;}</style></defs><title>network</title><path class="cls-1" d="M28,57A28,28,0,1,1,56,29,28,28,0,0,1,28,57Z"/><path class="cls-2" d="M36.5,61c-11.58,0-21-12.56-21-28s9.42-28,21-28,21,12.56,21,28S48.08,61,36.5,61Z"/><path class="cls-3" d="M32,2A30,30,0,1,0,62,32,30,30,0,0,0,32,2Zm0,58A28,28,0,1,1,60,32,28,28,0,0,1,32,60Z"/><path class="cls-3" d="M32.5,2C21.18,2,12,15.43,12,32s9.18,30,20.5,30S53,48.57,53,32,43.82,2,32.5,2Zm0,58C22.27,60,14,47.44,14,32S22.27,4,32.5,4,51,16.56,51,32,42.73,60,32.5,60Z"/><path class="cls-3" d="M32,2C25.93,2,21,15.43,21,32s4.93,30,11,30S43,48.56,43,32,38.07,2,32,2Zm0,58c-3.76,0-9-10.65-9-28S28.24,4,32,4s9,10.65,9,28S35.76,60,32,60Z"/><polygon class="cls-2" points="50.01 50.94 55.74 52.63 61.48 54.31 56.01 56.95 53.37 62.42 51.69 56.68 50.01 50.94"/><rect class="cls-2" x="57.22" y="55.99" width="2" height="6" transform="translate(-24.66 58.45) rotate(-45)"/><path class="cls-3" d="M46,5.12h0a.92.92,0,0,1,.54.46h0a1,1,0,0,1-.37,1.36h0a1,1,0,0,1-1.36-.37h0a1,1,0,0,1,.37-1.35A.92.92,0,0,1,46,5.12Z"/><polygon class="cls-3" points="32.6 33.56 30.91 27.83 29.22 22.09 34.4 25.26 40.43 24.51 36.52 29.04 32.6 33.56"/><circle class="cls-3" cx="61" cy="2" r="1"/><circle class="cls-3" cx="35" cy="22" r="1"/><circle class="cls-3" cx="36" cy="18" r="1"/><circle class="cls-3" cx="38" cy="14" r="1"/><circle class="cls-3" cx="41" cy="10" r="1"/><circle class="cls-3" cx="57" cy="2" r="1"/><circle class="cls-3" cx="53" cy="3" r="1"/><circle class="cls-3" cx="49" cy="4" r="1"/></svg>