<svg id="statistics" xmlns="http://www.w3.org/2000/svg" width="64" height="64" viewBox="0 0 64 64"><defs><style>.cls-1{fill:#b6dcfc;}.cls-2{fill:#d0e7fc;}.cls-3{fill:#5592bc;}.cls-4{fill:#87cfff;}</style></defs><title>statistics</title><polygon class="cls-1" points="53.93 12.11 34.25 1.4 15.9 35.13 42.6 49.66 56.37 24.37 53.93 12.11"/><path class="cls-2" d="M56.37,24.37,55,23.6l-2.81-1.53a3.19,3.19,0,0,1-1.28-4.34l1.53-2.81,1.53-2.81"/><polygon class="cls-2" points="21.34 57.08 54.35 50.86 42.66 9.98 9.64 16.2 21.34 57.08"/><path class="cls-3" d="M8,14H0V64H64V14H57v2h5V62H2V16H8Z"/><polygon class="cls-4" points="7.44 46 13.07 36.48 24.26 53.31 34.94 32.08 45.5 46.45 45.5 46.45 60 30.38 60 60 4 60 4 46 7.44 46"/><path class="cls-3" d="M23.95,46.45a1,1,0,0,1-.8-.4L13.58,33.23,7.38,42a1,1,0,1,1-1.63-1.16l7-9.86a1,1,0,0,1,.8-.42,1,1,0,0,1,.81.4l9.42,12.62,9.66-19.08a1,1,0,0,1,1.68-.17L45.92,37.9,58,24.43a1,1,0,1,1,1.49,1.34L46.62,40.12a1,1,0,0,1-.77.33,1,1,0,0,1-.75-.38L34.52,26.77,24.84,45.9a1,1,0,0,1-.81.54Z"/><circle class="cls-4" cx="46" cy="39.53" r="2"/><path class="cls-3" d="M46,42.2a2.67,2.67,0,1,1,2.67-2.67A2.67,2.67,0,0,1,46,42.2Zm0-4a1.33,1.33,0,1,0,1.33,1.33A1.34,1.34,0,0,0,46,38.2Z"/><circle class="cls-4" cx="34" cy="25.53" r="2"/><path class="cls-3" d="M34,28.2a2.67,2.67,0,1,1,2.67-2.67A2.67,2.67,0,0,1,34,28.2Zm0-4a1.33,1.33,0,1,0,1.33,1.33A1.33,1.33,0,0,0,34,24.2Z"/><circle class="cls-4" cx="24" cy="45.53" r="2"/><path class="cls-3" d="M24,48.2a2.67,2.67,0,1,1,2.67-2.67A2.67,2.67,0,0,1,24,48.2Zm0-4a1.33,1.33,0,1,0,1.33,1.33A1.34,1.34,0,0,0,24,44.2Z"/><circle class="cls-4" cx="14" cy="31.53" r="2"/><path class="cls-3" d="M14,34.2a2.67,2.67,0,1,1,2.67-2.67A2.67,2.67,0,0,1,14,34.2Zm0-4a1.33,1.33,0,1,0,1.33,1.33A1.33,1.33,0,0,0,14,30.2Z"/></svg>