<svg id="ux_design" data-name="ux design" xmlns="http://www.w3.org/2000/svg" width="64" height="64" viewBox="0 0 64 64"><defs><style>.cls-1{fill:#d0e7fc;}.cls-2{fill:#5592bc;}.cls-3{fill:#87cfff;}.cls-4{fill:#ef9884;}</style></defs><title>ux design</title><rect class="cls-1" x="36" y="2" width="10" height="34"/><path class="cls-2" d="M64,18.09v-16H60v-1a1,1,0,0,0-1-1H51a1,1,0,0,0-1,1v20a1,1,0,0,0,1,1h1v35a1,1,0,0,0,0,.24l2,6a1,1,0,0,0,1.94,0l2-6a1,1,0,0,0,0-.24v-35h1a1,1,0,0,0,1-1V17.91a4.62,4.62,0,0,0,3,1.18A1,1,0,0,0,64,18.09Zm-10,36h2V57l-1,2-1-2Zm0-14h2v12H54Zm0-18h2v16H54Zm4-2H52v-18h6v18Zm2.16-5.81a1.83,1.83,0,0,1,1.78-2H62v4.59A3.23,3.23,0,0,1,60.16,14.28ZM62,4.09v6.2h-.06a3.7,3.7,0,0,0-1.94.55V4.09Z"/><path class="cls-2" d="M48,64H34V0H48ZM36,62H46V2H36Z"/><rect class="cls-2" x="36" y="6" width="6" height="2"/><rect class="cls-2" x="36" y="14" width="4" height="2"/><rect class="cls-2" x="36" y="22" width="6" height="2"/><rect class="cls-2" x="36" y="28" width="4" height="2"/><rect class="cls-2" x="36" y="36" width="6" height="2"/><rect class="cls-2" x="36" y="42" width="4" height="2"/><rect class="cls-2" x="36" y="50" width="6" height="2"/><rect class="cls-2" x="36" y="56" width="4" height="2"/><path class="cls-2" d="M29,64H3a3,3,0,0,1-3-3V3A3,3,0,0,1,3,0H29a3,3,0,0,1,3,3V61A3,3,0,0,1,29,64ZM3,2A1,1,0,0,0,2,3V61a1,1,0,0,0,1,1H29a1,1,0,0,0,1-1V3a1,1,0,0,0-1-1Z"/><path class="cls-2" d="M25,52H7a3,3,0,0,1-3-3V15a3,3,0,0,1,3-3H25a3,3,0,0,1,3,3V49A3,3,0,0,1,25,52ZM7,14a1,1,0,0,0-1,1V49a1,1,0,0,0,1,1H25a1,1,0,0,0,1-1V15a1,1,0,0,0-1-1Z"/><circle class="cls-2" cx="21" cy="7" r="1"/><path class="cls-2" d="M18,7a1,1,0,0,1-1,1H11a1,1,0,0,1-1-1h0a1,1,0,0,1,1-1h6a1,1,0,0,1,1,1Z"/><path class="cls-2" d="M22,57a1,1,0,0,1-1,1H11a1,1,0,0,1-1-1h0a1,1,0,0,1,1-1H21a1,1,0,0,1,1,1Z"/><rect class="cls-2" x="6" y="14" width="20" height="8"/><rect class="cls-3" x="6" y="22" width="20" height="8"/><rect class="cls-4" x="6" y="30" width="20" height="8"/><rect class="cls-1" x="52" y="2" width="6" height="6"/></svg>