<svg id="web-application" xmlns="http://www.w3.org/2000/svg" xmlns:xlink="http://www.w3.org/1999/xlink" width="64" height="64" viewBox="0 0 64 64"><defs><style>.cls-1,.cls-10,.cls-11,.cls-2{fill:none;}.cls-10,.cls-11,.cls-2,.cls-3{stroke:#5592bc;stroke-width:2px;}.cls-11,.cls-2,.cls-3{stroke-linecap:round;}.cls-2,.cls-3{stroke-linejoin:round;}.cls-3,.cls-6{fill:#d0e7fc;}.cls-4{fill:#5592bc;}.cls-5{clip-path:url(#clip-path);}.cls-7{fill:#fff;}.cls-8{fill:#ef9884;}.cls-9{fill:#87cfff;}.cls-10,.cls-11{stroke-miterlimit:10;}</style><clipPath id="clip-path"><polygon class="cls-1" points="48 53.25 34 44.96 34 29 62 29 62 44.96 48 53.25"/></clipPath></defs><title>web-application</title><rect class="cls-2" x="33" y="45" width="30" height="18"/><polygon class="cls-3" points="47.75 36.25 33 45 47.78 54.25 63 45 47.75 36.25"/><path class="cls-4" d="M62.4,63.25a1,1,0,0,1-.5-.13L50.83,56.79a1,1,0,0,1,1-1.74l11.07,6.33a1,1,0,0,1-.5,1.87Z"/><path class="cls-4" d="M33.32,63.25a1,1,0,0,1-.5-1.87L43.9,55.05a1,1,0,1,1,1,1.74L33.82,63.12A1,1,0,0,1,33.32,63.25Z"/><g class="cls-5"><path class="cls-6" d="M60,45.3V41.2l-5.2-.88c0-.09.13-.17.09-.26l3.4-4.56-2.85-2.89-4.54,3.31c-.08,0-.16.31-.24.28L49.8,31H45.7l-.88,5.2c-.08,0-.17-.13-.25-.09L40,32.7l-2.9,2.85,3.31,4.54c0,.08-.44.16-.47.24L34,41.2V45.3l5.95.88c0,.09.25.17.28.26L37,51,40,53.89l4.58-3.31c.08,0,.18.44.27.47L45.7,57H49.8l.85-5.72,4.12,2.8,2.89-3-2.89-4c.15-.27-.08-.56,0-.86Zm-12.25,2a4,4,0,1,1,4-4A4,4,0,0,1,47.75,47.25Z"/><path class="cls-4" d="M49.8,57.25H45.7a1,1,0,0,1-1-.84L44,52.19,40.59,54.7a1,1,0,0,1-1.3-.1L36.4,51.7a1,1,0,0,1-.1-1.29L38.81,47l-4.21-.67a1,1,0,0,1-.84-1V41.2a1,1,0,0,1,.84-1l4.21-.67L36.3,36.09a1,1,0,0,1,.1-1.29l2.9-2.89a1,1,0,0,1,1.29-.1L44,34.31l.67-4.21a1,1,0,0,1,1-.84H49.8a1,1,0,0,1,1,.84l.67,4.21,3.46-2.51a1,1,0,0,1,1.29.1L59.1,34.8a1,1,0,0,1,.1,1.29l-2.51,3.46,4.21.67a1,1,0,0,1,.84,1V45.3a1,1,0,0,1-.84,1L56,47.06l2.43,3.35a1,1,0,0,1-.1,1.29l-2.89,2.9a1,1,0,0,1-1.3.1l-2.79-2-.59,3.74A1,1,0,0,1,49.8,57.25Zm-3.24-2h2.39l.71-4.5a1,1,0,0,1,1.58-.65l3.42,2.48,1.69-1.69L54,47.6a1,1,0,0,1-.07-1.06,7.3,7.3,0,0,0,.36-.73,1,1,0,0,1,.77-.62l4.73-.75V42.06L55,41.31a1,1,0,0,1-.78-.63,1.57,1.57,0,0,1,0-1.21l2.81-3.87-1.69-1.69-3.87,2.81a1,1,0,0,1-1,.11c-.32-.13-.8-.52-.86-.86l-.75-4.73H46.56L45.81,36a1,1,0,0,1-.62.77,1.54,1.54,0,0,1-1.21,0l-3.87-2.81-1.69,1.69,2.8,3.87a1,1,0,0,1,.11,1c-.13.32-.52.8-.86.86l-4.73.75v2.39l4.73.75a1,1,0,0,1,.78.63,1.57,1.57,0,0,1,0,1.21l-2.8,3.87,1.69,1.69L44,49.77a1,1,0,0,1,1-.11c.32.13.8.52.86.86Zm1.19-7a5,5,0,1,1,5-5A5,5,0,0,1,47.75,48.25Zm0-8a3,3,0,1,0,3,3A3,3,0,0,0,47.75,40.25Z"/></g><path class="cls-4" d="M47.91,55.25a1,1,0,0,1-.51-.14l-14.91-9a1,1,0,0,1-.34-1.37,1,1,0,0,1,1.36-.34l14.4,8.72,14.34-8.63a1,1,0,0,1,1.36.34,1,1,0,0,1-.34,1.37L48.42,55.11A1,1,0,0,1,47.91,55.25Z"/><rect class="cls-7" x="2" y="28" width="40" height="34"/><rect class="cls-6" x="2" y="16" width="40" height="6"/><circle class="cls-4" cx="13" cy="19" r="1"/><circle class="cls-4" cx="9" cy="19" r="1"/><circle class="cls-8" cx="5" cy="19" r="1"/><rect class="cls-9" x="2" y="22" width="40" height="6"/><rect class="cls-7" x="16" y="24" width="20" height="2"/><rect class="cls-8" x="4" y="32" width="10" height="8"/><rect class="cls-8" x="30" y="32" width="10" height="8"/><rect class="cls-8" x="16" y="32" width="12" height="8"/><polygon class="cls-4" points="19.5 45.88 25.24 47.56 30.98 49.24 25.51 51.88 22.87 57.35 21.18 51.62 19.5 45.88"/><rect class="cls-4" x="26.72" y="50.92" width="2" height="6" transform="translate(-30.01 35.39) rotate(-45)"/><rect class="cls-10" x="1" y="15" width="42" height="48" rx="1.91" ry="1.91"/><rect class="cls-4" x="16" y="18" width="24" height="2"/><rect class="cls-4" x="37" y="24" width="3" height="2"/><rect class="cls-4" x="4" y="24" width="10" height="2"/><line class="cls-2" x1="2" y1="54" x2="16" y2="54"/><line class="cls-11" x1="36" y1="62" x2="36" y2="42"/></svg>